<svg xmlns="http://www.w3.org/2000/svg" version="1.1" xmlns:xlink="http://www.w3.org/1999/xlink" xmlns:svgjs="http://svgjs.dev/svgjs" width="1000" height="391" viewBox="0 0 1000 391"><g transform="matrix(1,0,0,1,-0.6060606060606233,0.17941255631805575)"><svg viewBox="0 0 396 155" data-background-color="#382b47" preserveAspectRatio="xMidYMid meet" height="391" width="1000" xmlns="http://www.w3.org/2000/svg" xmlns:xlink="http://www.w3.org/1999/xlink"><g id="tight-bounds" transform="matrix(1,0,0,1,0.2400000000000091,-0.07112262462736396)"><svg viewBox="0 0 395.52 155.14224524925473" height="155.14224524925473" width="395.52"><g><svg viewBox="0 0 630.2122535542567 247.2" height="155.14224524925473" width="395.52"><g transform="matrix(1,0,0,1,257.3705762988564,0)"><svg viewBox="0 0 372.8416772554002 247.2" height="247.2" width="372.8416772554002"><g id="textblocktransform"><svg viewBox="0 0 372.8416772554002 247.2" height="247.2" width="372.8416772554002" id="textblock"><g><svg viewBox="0 0 372.8416772554002 247.2" height="247.2" width="372.8416772554002"><g transform="matrix(1,0,0,1,0,0)"><svg width="372.8416772554002" viewBox="1.8499994277954102 -35.5 118.70000457763672 75.4000015258789" height="247.2" data-palette-color="#5d1dc5"><svg></svg><svg></svg><g class="undefined-text-0" data-fill-palette-color="primary" id="text-0"><path xmlns="http://www.w3.org/2000/svg" d="M22.95 0l-13.55-23.65v23.65h-5.5v-35h5.5l13.55 23.5v-23.5h5.55v35zM53.85-1.15c-2.967 1.1-5.733 1.65-8.3 1.65v0c-2.9 0-5.25-0.767-7.05-2.3-1.8-1.533-2.7-3.983-2.7-7.35v0-16.05c0-2.533 0.36-4.45 1.08-5.75 0.713-1.3 1.803-2.4 3.27-3.3v0c1.467-0.833 3.267-1.25 5.4-1.25v0c2.6 0 4.95 0.55 7.05 1.65v0l-1.55 5c-1.533-0.567-3.217-0.85-5.05-0.85v0c-1.4 0-2.533 0.383-3.4 1.15-0.867 0.767-1.3 1.733-1.3 2.9v0 16.4c0 2.8 1.567 4.2 4.7 4.2v0c1 0 2-0.11 3-0.33 1-0.213 2.333-0.537 4-0.97v0zM55.55 0v-5.05l17.1-24.45h-16.45v-5.5h23.4v5.5l-17.2 24.3h17.5v5.2z" fill="#5d1dc5" fill-rule="nonzero" stroke="none" stroke-width="1" stroke-linecap="butt" stroke-linejoin="miter" stroke-miterlimit="10" stroke-dasharray="" stroke-dashoffset="0" font-family="none" font-weight="none" font-size="none" text-anchor="none" style="mix-blend-mode: normal" data-fill-palette-color="primary" opacity="1"></path><path xmlns="http://www.w3.org/2000/svg" d="M7.75 29.6c0.167 1.467 0.767 2.65 1.8 3.55 1.033 0.9 2.383 1.35 4.05 1.35v0c1.4 0 2.543-0.233 3.43-0.7 0.88-0.467 1.52-1.033 1.92-1.7 0.4-0.667 0.6-1.317 0.6-1.95v0c0-1.467-0.357-2.693-1.07-3.68-0.72-0.98-1.603-1.763-2.65-2.35-1.053-0.58-2.48-1.253-4.28-2.02v0c-1.967-0.833-3.523-1.593-4.67-2.28-1.153-0.68-2.137-1.613-2.95-2.8-0.82-1.18-1.23-2.687-1.23-4.52v0c0-1.467 0.417-2.86 1.25-4.18 0.833-1.313 2.1-2.387 3.8-3.22 1.7-0.833 3.783-1.25 6.25-1.25v0c1.633 0 2.983 0.117 4.05 0.35 1.067 0.233 2.15 0.617 3.25 1.15v0l-1.75 5.2c-1.2-0.4-2.173-0.683-2.92-0.85-0.753-0.167-1.613-0.25-2.58-0.25v0c-1.9 0-3.3 0.333-4.2 1-0.9 0.667-1.3 1.517-1.2 2.55v0c0.1 0.833 0.61 1.55 1.53 2.15 0.913 0.6 2.337 1.333 4.27 2.2v0c2.267 1 4.15 1.95 5.65 2.85 1.5 0.9 2.793 2.133 3.88 3.7 1.08 1.567 1.62 3.483 1.62 5.75v0c0 2.967-0.983 5.417-2.95 7.35-1.967 1.933-4.967 2.9-9 2.9v0c-2.467 0-4.573-0.46-6.32-1.38-1.753-0.913-3.087-2.097-4-3.55-0.92-1.447-1.413-2.953-1.48-4.52v0zM33.2 39.35v-29.45h-7.2v-5.55h20.1v5.55h-7.4v29.45zM69.25 30.1c0 3.367-1.023 5.84-3.07 7.42-2.053 1.587-4.513 2.38-7.38 2.38v0c-1.8 0-3.5-0.327-5.1-0.98-1.6-0.647-2.91-1.703-3.93-3.17-1.013-1.467-1.52-3.35-1.52-5.65v0-16.1c0-3.433 0.943-6.033 2.83-7.8 1.88-1.767 4.47-2.65 7.77-2.65v0c3.3 0 5.86 0.933 7.68 2.8 1.813 1.867 2.72 4.433 2.72 7.7v0zM63.75 15.85c0-1.4-0.117-2.55-0.35-3.45-0.233-0.9-0.717-1.61-1.45-2.13-0.733-0.513-1.8-0.77-3.2-0.77v0c-1.4 0-2.467 0.25-3.2 0.75-0.733 0.5-1.217 1.19-1.45 2.07-0.233 0.887-0.35 2.047-0.35 3.48v0 13.35c0 1.6 0.41 2.857 1.23 3.77 0.813 0.92 2.07 1.38 3.77 1.38v0c1.567 0 2.79-0.483 3.67-1.45 0.887-0.967 1.33-2.233 1.33-3.8v0zM93.9 38.2c-2.967 1.1-5.733 1.65-8.3 1.65v0c-2.9 0-5.25-0.767-7.05-2.3-1.8-1.533-2.7-3.983-2.7-7.35v0-16.05c0-2.533 0.36-4.45 1.08-5.75 0.713-1.3 1.803-2.4 3.27-3.3v0c1.467-0.833 3.267-1.25 5.4-1.25v0c2.6 0 4.95 0.55 7.05 1.65v0l-1.55 5c-1.533-0.567-3.217-0.85-5.05-0.85v0c-1.4 0-2.533 0.383-3.4 1.15-0.867 0.767-1.3 1.733-1.3 2.9v0 16.4c0 2.8 1.567 4.2 4.7 4.2v0c1 0 2-0.11 3-0.33 1-0.213 2.333-0.537 4-0.97v0zM113.7 39.35l-9.45-13.9-0.35 0.5v13.4h-5.9v-35.05h5.9v12.05l8.1-12.05h6.6l-11.1 16.25 13.05 18.8z" fill="#5d1dc5" fill-rule="nonzero" stroke="none" stroke-width="1" stroke-linecap="butt" stroke-linejoin="miter" stroke-miterlimit="10" stroke-dasharray="" stroke-dashoffset="0" font-family="none" font-weight="none" font-size="none" text-anchor="none" style="mix-blend-mode: normal" data-fill-palette-color="primary" opacity="1"></path></g></svg></g></svg></g></svg></g></svg></g><g transform="matrix(1,0,0,1,0,9.050376074984683)"><svg viewBox="0 0 230.41615654383733 229.09924785003062" height="229.09924785003062" width="230.41615654383733"><g><svg xmlns="http://www.w3.org/2000/svg" xmlns:xlink="http://www.w3.org/1999/xlink" version="1.1" x="0" y="0" viewBox="23.229999542236328 23.382999420166016 53.53999710083008 53.2339973449707" style="enable-background:new 0 0 100 100;" xml:space="preserve" height="229.09924785003062" width="230.41615654383733" class="icon-icon-0" data-fill-palette-color="accent" id="icon-0"><g fill="#7aacc3" data-fill-palette-color="accent"><polygon points="23.23,46.706 61.693,46.706 61.693,40.706 37.187,40.706 43.724,29.383 67.531,29.383 71.573,36.385 76.77,33.385    70.995,23.383 40.26,23.383 30.259,40.706 23.23,40.706  " fill="#7aacc3" data-fill-palette-color="accent"></polygon><polygon points="23.23,59.294 30.259,59.294 40.26,76.617 70.995,76.617 76.77,66.615 71.573,63.615 67.531,70.617 43.724,70.617    37.187,59.294 61.693,59.294 61.693,53.294 23.23,53.294  " fill="#7aacc3" data-fill-palette-color="accent"></polygon></g></svg></g></svg></g></svg></g><defs></defs></svg><rect width="395.52" height="155.14224524925473" fill="none" stroke="none" visibility="hidden"></rect></g></svg></g></svg>