<svg xmlns="http://www.w3.org/2000/svg" version="1.1" xmlns:xlink="http://www.w3.org/1999/xlink" xmlns:svgjs="http://svgjs.dev/svgjs" width="1000" height="1000" viewBox="0 0 1000 1000"><rect width="1000" height="1000" fill="#000000"></rect><g transform="matrix(0.7,0,0,0.7,149.57576892143015,395.2716353565317)"><svg viewBox="0 0 396 119" data-background-color="#ffffff" preserveAspectRatio="xMidYMid meet" height="300" width="1000" xmlns="http://www.w3.org/2000/svg" xmlns:xlink="http://www.w3.org/1999/xlink"><g id="tight-bounds" transform="matrix(1,0,0,1,0.23999358159096573,-0.15392670203462444)"><svg viewBox="0 0 395.52 119.30785340406923" height="119.30785340406923" width="395.52"><g><svg viewBox="0 0 395.52 119.30785340406923" height="119.30785340406923" width="395.52"><g><svg viewBox="0 0 395.52 119.30785340406923" height="119.30785340406923" width="395.52"><g><svg viewBox="0 0 675.2663295612708 203.6928" height="119.30785340406923" width="395.52"><g transform="matrix(1,0,0,1,279.74632956127084,27.050636006051448)"><svg viewBox="0 0 395.52 149.5915279878971" height="149.5915279878971" width="395.52"><g id="textblocktransform"><svg viewBox="0 0 395.52 149.5915279878971" height="149.5915279878971" width="395.52" id="textblock"><g><svg viewBox="0 0 395.52 149.5915279878971" height="149.5915279878971" width="395.52"><g transform="matrix(1,0,0,1,0,0)"><svg width="395.52" viewBox="3.25 -24.5 66.08999633789062 25" height="149.5915279878971" data-palette-color="#100220"><path d="M3.25 0L3.25-24 11.9-24Q17.45-24 19.85-22.35L19.85-22.35Q22-20.9 22.58-18.88 23.15-16.85 23.15-13.55L23.15-13.55 23.15 0 18.75 0 18.75-13.5Q18.75-14.4 18.7-15.03 18.65-15.65 18.35-16.63 18.05-17.6 17.5-18.23 16.95-18.85 15.9-19.33 14.85-19.8 13.35-19.8L13.35-19.8 7.65-19.8 7.65 0 3.25 0ZM45.55-5.25L45.55-5.25 48.55-2.3Q45.1 0.5 40.65 0.5L40.65 0.5Q35.1 0.5 31.75-3.08 28.4-6.65 28.4-12L28.4-12Q28.4-17.25 31.92-20.88 35.45-24.5 40.65-24.5L40.65-24.5Q45.1-24.5 48.55-21.7L48.55-21.7 45.6-18.7Q43.5-20.3 40.65-20.3L40.65-20.3Q37.2-20.3 35.17-18.03 33.15-15.75 33.15-12 33.15-8.25 35.17-5.98 37.2-3.7 40.65-3.7L40.65-3.7Q43.55-3.7 45.55-5.25ZM69.34 0L51.55 0 51.55-2Q51.55-4.4 52.62-6.58 53.7-8.75 55.32-10.4 56.95-12.05 58.62-13.5 60.3-14.95 61.82-16.55 63.34-18.15 63.9-19.6L63.9-19.6 51.59-19.6 51.59-24 69-24 69-21.55Q69-19.35 67.92-17.35 66.84-15.35 65.2-13.75 63.55-12.15 61.82-10.7 60.09-9.25 58.52-7.6 56.95-5.95 56.3-4.4L56.3-4.4 69.34-4.4 69.34 0Z" opacity="1" transform="matrix(1,0,0,1,0,0)" fill="#ffffff" class="undefined-text-0" data-fill-palette-color="primary" id="text-0"></path></svg></g></svg></g></svg></g></svg></g><g><svg viewBox="0 0 244.43136 203.6928" height="203.6928" width="244.43136"><g><svg xmlns="http://www.w3.org/2000/svg" xmlns:xlink="http://www.w3.org/1999/xlink" version="1.1" x="0" y="0" viewBox="5 7.5 30 25" enable-background="new 0 0 40 40" xml:space="preserve" height="203.6928" width="244.43136" class="icon-icon-0" data-fill-palette-color="accent" id="icon-0"><g fill="#db1616" data-fill-palette-color="accent"><path fill="#ffffff" d="M6 25.7c-0.6 0-1-0.4-1-1v-9.4c0-0.6 0.4-1 1-1s1 0.4 1 1v9.4C7 25.2 6.6 25.7 6 25.7z" data-fill-palette-color="accent"></path></g><g fill="#db1616" data-fill-palette-color="accent"><path fill="#ffffff" d="M10 28.5c-0.6 0-1-0.4-1-1v-15c0-0.6 0.4-1 1-1s1 0.4 1 1v15C11 28.1 10.6 28.5 10 28.5z" data-fill-palette-color="accent"></path></g><g fill="#db1616" data-fill-palette-color="accent"><path fill="#ffffff" d="M14 32.5c-0.6 0-1-0.4-1-1v-23c0-0.6 0.4-1 1-1s1 0.4 1 1v23C15 32.1 14.6 32.5 14 32.5z" data-fill-palette-color="accent"></path></g><g fill="#db1616" data-fill-palette-color="accent"><path fill="#ffffff" d="M18 29.5c-0.6 0-1-0.4-1-1v-17c0-0.6 0.4-1 1-1s1 0.4 1 1v17C19 29.1 18.6 29.5 18 29.5z" data-fill-palette-color="accent"></path></g><g fill="#db1616" data-fill-palette-color="accent"><path fill="#ffffff" d="M22 25.7c-0.6 0-1-0.4-1-1v-9.4c0-0.6 0.4-1 1-1s1 0.4 1 1v9.4C23 25.2 22.6 25.7 22 25.7z" data-fill-palette-color="accent"></path></g><g fill="#db1616" data-fill-palette-color="accent"><path fill="#ffffff" d="M26 28.5c-0.6 0-1-0.4-1-1v-15c0-0.6 0.4-1 1-1s1 0.4 1 1v15C27 28.1 26.6 28.5 26 28.5z" data-fill-palette-color="accent"></path></g><g fill="#db1616" data-fill-palette-color="accent"><path fill="#ffffff" d="M30 31.5c-0.6 0-1-0.4-1-1v-21c0-0.6 0.4-1 1-1s1 0.4 1 1v21C31 31.1 30.6 31.5 30 31.5z" data-fill-palette-color="accent"></path></g><g fill="#db1616" data-fill-palette-color="accent"><path fill="#ffffff" d="M34 25.7c-0.6 0-1-0.4-1-1v-9.4c0-0.6 0.4-1 1-1s1 0.4 1 1v9.4C35 25.2 34.6 25.7 34 25.7z" data-fill-palette-color="accent"></path></g></svg></g></svg></g></svg></g></svg></g></svg></g><defs></defs></svg><rect width="395.52" height="119.30785340406923" fill="none" stroke="none" visibility="hidden"></rect></g></svg></g></svg>